<?xml version="1.0" standalone="no"?>
<!DOCTYPE svg PUBLIC "-//W3C//DTD SVG 20010904//EN"
 "http://www.w3.org/TR/2001/REC-SVG-20010904/DTD/svg10.dtd">
<svg version="1.0" xmlns="http://www.w3.org/2000/svg"
 width="378.000000pt" height="378.000000pt" viewBox="0 0 378.000000 378.000000"
 preserveAspectRatio="xMidYMid meet">
<metadata>
Created by potrace 1.11, written by Peter Selinger 2001-2013
</metadata>
<g transform="translate(0.000000,378.000000) scale(0.100000,-0.100000)"
fill="#000000" stroke="none">
<path d="M2974 3723 c-9 -32 -33 -114 -54 -183 -21 -69 -41 -141 -45 -160 -7
-29 -9 -32 -15 -15 -6 15 -9 10 -14 -25 -4 -25 -13 -65 -21 -90 -29 -96 -53
-225 -44 -231 5 -3 7 -13 3 -23 -5 -13 -9 -14 -15 -5 -4 7 -10 -8 -13 -37 -3
-27 -17 -125 -31 -219 -21 -140 -34 -234 -57 -422 -1 -7 -4 -10 -8 -8 -7 5
-63 -52 -165 -168 -56 -64 -66 -80 -54 -89 11 -8 11 -9 -3 -4 -12 3 -30 -10
-57 -43 -23 -27 -41 -53 -41 -58 0 -5 -9 -16 -20 -26 -12 -10 -18 -23 -14 -29
4 -7 3 -8 -4 -4 -6 4 -17 -2 -24 -14 -7 -11 -17 -20 -23 -20 -5 0 -39 -34 -75
-76 l-65 -75 -15 46 c-9 25 -19 43 -23 38 -5 -4 -5 0 -2 9 7 17 -42 130 -70
163 -9 11 -13 13 -9 5 4 -8 4 -12 -1 -8 -4 4 -15 2 -24 -5 -14 -10 -14 -10 -3
5 8 9 10 23 6 29 -5 8 -3 10 7 4 8 -4 5 1 -6 12 -11 11 -24 18 -29 15 -5 -3
-6 0 -1 7 7 13 -30 61 -48 61 -6 0 0 -11 13 -25 13 -14 20 -28 17 -32 -4 -3
-7 -1 -7 5 0 7 -5 12 -11 12 -5 0 -7 -5 -3 -12 4 -7 3 -8 -4 -4 -6 4 -9 13 -5
21 3 8 0 15 -7 15 -7 0 -9 8 -5 20 7 23 -13 28 -21 5 -4 -8 -10 -12 -15 -9
-11 6 -12 25 -1 22 4 -2 7 2 7 7 0 6 -4 9 -8 7 -5 -1 -6 2 -3 7 9 14 -112 88
-205 126 -130 53 -250 74 -404 71 -127 -3 -275 -29 -330 -59 -11 -6 -23 -10
-26 -10 -3 1 -37 -17 -75 -40 -57 -35 -69 -47 -69 -69 -1 -36 -9 -42 -26 -21
-8 9 -9 14 -3 10 7 -4 14 0 18 8 22 57 -82 -53 -134 -142 -44 -75 -85 -186
-76 -208 2 -7 1 -15 -4 -17 -5 -2 -14 -51 -19 -110 -8 -84 -7 -135 4 -230 8
-68 15 -129 15 -135 0 -7 5 -13 11 -13 6 0 8 9 4 23 -5 18 -4 19 5 5 10 -16 4
-51 -9 -44 -3 2 -7 -10 -8 -28 -1 -17 -17 -79 -37 -137 -36 -108 -60 -259 -39
-246 7 5 9 0 6 -12 -6 -23 26 -58 61 -67 18 -4 34 0 52 15 26 20 28 20 46 4
17 -15 20 -15 28 -3 6 9 10 10 10 3 0 -6 -4 -15 -10 -18 -6 -3 -10 -13 -10
-21 0 -8 3 -13 8 -11 4 3 8 -11 9 -31 1 -19 5 -38 10 -41 4 -3 9 -22 11 -41 1
-19 6 -37 10 -40 4 -3 7 -11 8 -17 2 -30 5 -34 16 -27 7 4 8 3 4 -4 -8 -13 20
-72 34 -72 6 0 9 -6 7 -13 -1 -6 4 -11 11 -9 8 1 11 -2 7 -8 -8 -13 96 -111
112 -105 7 2 15 -1 19 -7 5 -7 2 -8 -6 -3 -8 5 -11 4 -6 -3 4 -6 14 -8 23 -5
11 4 14 2 9 -5 -4 -7 6 -18 24 -27 16 -8 30 -13 30 -9 0 4 6 1 14 -5 57 -47
338 -101 421 -80 22 5 47 12 55 14 8 2 19 4 23 4 5 1 5 6 1 13 -4 6 -3 8 4 5
14 -9 43 3 36 14 -3 6 -15 7 -27 4 -19 -5 -20 -5 -4 5 9 6 22 8 28 4 17 -10
29 17 18 40 -10 21 -10 21 6 1 14 -18 16 -18 32 -3 14 15 14 19 2 35 -12 16
-12 17 2 5 14 -10 21 -5 52 35 20 27 40 53 45 58 89 110 212 287 206 296 -4 7
-3 9 3 6 6 -4 54 58 107 138 61 90 109 151 129 164 19 11 47 33 63 48 16 15
34 28 39 28 6 0 9 9 8 19 -1 13 2 15 10 7 7 -7 28 0 71 23 304 169 412 229
416 235 3 3 11 7 18 9 7 1 42 20 78 42 37 22 68 40 70 40 3 0 16 7 30 17 19
12 22 18 12 25 -9 6 -6 7 9 3 28 -8 46 2 36 18 -5 7 -8 26 -9 44 0 24 3 30 15
25 10 -4 11 -7 3 -10 -22 -7 -13 -22 14 -22 15 0 23 -4 19 -10 -4 -6 -15 -8
-26 -5 -20 7 -27 -9 -9 -20 11 -7 70 25 70 38 0 4 -6 5 -12 1 -10 -6 -10 -5
-1 8 7 8 11 18 8 21 -3 4 -2 4 3 1 4 -3 7 -10 7 -15 0 -16 16 -11 45 14 15 14
30 24 33 21 2 -2 38 31 80 75 68 72 75 83 73 115 -2 19 1 33 6 30 5 -3 6 -15
2 -26 -6 -20 -3 -20 77 -13 94 7 228 28 337 51 l72 16 0 949 0 949 -395 0
-394 0 -17 -57z m-1751 -1420 c-7 -2 -21 -2 -30 0 -10 3 -4 5 12 5 17 0 24 -2
18 -5z m50 0 c-7 -2 -19 -2 -25 0 -7 3 -2 5 12 5 14 0 19 -2 13 -5z m-183 -13
c-8 -5 -19 -10 -25 -10 -5 0 -3 5 5 10 8 5 20 10 25 10 6 0 3 -5 -5 -10z m-40
-10 c0 -5 -8 -10 -17 -10 -15 0 -16 2 -3 10 19 12 20 12 20 0z m356 -18 c-6
-6 -56 10 -56 18 0 5 13 3 30 -3 16 -6 28 -13 26 -15z m1247 10 c-8 -5 -9 -13
-3 -22 12 -18 11 -135 0 -170 -5 -15 -6 8 -3 56 3 49 1 88 -5 100 -9 16 -10
13 -8 -17 3 -34 2 -36 -30 -35 -43 1 -49 9 -22 32 l23 19 -19 -22 c-11 -13
-14 -23 -9 -23 6 0 16 7 23 15 7 8 16 12 21 9 5 -3 9 -1 9 5 0 5 -4 12 -10 16
-11 7 19 45 35 45 5 0 5 -4 -2 -8z m-1723 -37 c-7 -8 -19 -15 -27 -15 -10 0
-8 6 8 19 27 22 38 19 19 -4z m-55 -15 c3 -6 -1 -7 -9 -4 -18 7 -21 14 -7 14
6 0 13 -4 16 -10z m2476 -11 c12 -24 -3 -50 -16 -28 -5 8 -4 10 3 5 7 -4 12
-3 12 2 0 19 -14 21 -32 5 -18 -16 -18 -16 -12 0 3 9 10 17 16 17 5 0 6 5 3
10 -3 6 -2 10 4 10 6 0 15 -9 22 -21z m-1646 -19 c-27 -12 -43 -12 -25 0 8 5
22 9 30 9 10 0 8 -3 -5 -9z m1581 -2 c4 -7 4 -10 -1 -6 -4 4 -15 2 -24 -5 -14
-11 -14 -10 -2 6 16 20 18 21 27 5z m-2501 -8 c-3 -5 -1 -10 6 -10 7 0 10 -3
6 -6 -9 -9 -28 6 -22 17 4 5 8 9 11 9 3 0 2 -4 -1 -10z m-17 -42 c-11 -6 -11
-10 0 -17 11 -7 11 -9 0 -14 -11 -4 -14 4 -14 28 1 27 4 31 14 23 11 -9 11
-13 0 -20z m2472 22 c0 -5 -5 -10 -11 -10 -5 0 -7 5 -4 10 3 6 8 10 11 10 2 0
4 -4 4 -10z m-692 -36 c-2 -14 -12 -19 -35 -20 -26 0 -30 2 -21 13 8 10 14 11
22 3 15 -15 26 -12 26 6 0 8 -4 12 -10 9 -11 -7 -14 8 -3 19 11 10 25 -10 21
-30z m819 -11 c-3 -10 -5 -2 -5 17 0 19 2 27 5 18 2 -10 2 -26 0 -35z m-165
25 c-7 -7 -8 -16 -2 -23 7 -8 0 -11 -25 -11 -19 1 -35 2 -35 2 0 3 65 44 70
44 2 0 -1 -5 -8 -12z m-1377 -16 c-3 -3 -11 0 -18 7 -9 10 -8 11 6 5 10 -3 15
-9 12 -12z m-29 -7 c17 -16 14 -18 -10 -9 -9 3 -16 10 -16 15 0 13 9 11 26 -6z
m1459 -13 c-3 -3 -11 0 -18 7 -9 10 -8 11 6 5 10 -3 15 -9 12 -12z m-139 -41
c0 -16 -4 -27 -9 -24 -4 2 -4 9 -1 15 4 6 1 9 -7 6 -8 -3 -14 -11 -14 -19 0
-9 -9 -13 -24 -11 -14 1 -33 -8 -49 -23 -22 -22 -23 -25 -6 -26 14 0 15 -2 4
-6 -8 -3 -18 -11 -22 -17 -4 -6 -10 -7 -15 -3 -4 5 -1 12 7 17 12 8 11 10 -5
10 -16 0 -13 5 14 23 19 12 46 30 60 40 14 9 34 20 44 23 9 4 17 10 17 15 0 5
2 9 4 9 2 0 3 -13 2 -29z m-642 11 c3 -5 -1 -9 -9 -9 -8 0 -12 4 -9 9 3 4 7 8
9 8 2 0 6 -4 9 -8z m893 -44 c-2 -13 -4 -5 -4 17 -1 22 1 32 4 23 2 -10 2 -28
0 -40z m-1494 8 c3 -6 -3 -12 -12 -12 -9 0 -17 8 -17 17 0 18 22 15 29 -5z
m-1245 -26 c-7 -10 -14 -17 -17 -15 -4 4 18 35 25 35 2 0 -1 -9 -8 -20z m1317
-44 c1 -12 -4 -23 -10 -23 -6 0 -11 8 -11 18 0 10 4 15 8 13 11 -7 10 10 -2
24 -7 9 -7 9 3 2 6 -6 12 -21 12 -34z m446 20 c-7 -8 -9 -21 -5 -28 4 -7 4
-10 -1 -6 -4 4 -15 2 -23 -5 -9 -6 -5 5 9 25 13 20 26 35 28 33 2 -3 -2 -11
-8 -19z m906 -23 c-3 -10 -5 -4 -5 12 0 17 2 24 5 18 2 -7 2 -21 0 -30z m54
-4 c-5 -13 -10 -19 -10 -12 -1 15 10 45 15 40 3 -2 0 -15 -5 -28z m-2741 13
c0 -5 -7 -9 -15 -9 -8 0 -12 4 -9 9 3 4 9 8 15 8 5 0 9 -4 9 -8z m2345 -12 c3
-5 2 -10 -4 -10 -5 0 -13 5 -16 10 -3 6 -2 10 4 10 5 0 13 -4 16 -10z m-15
-21 c12 -8 10 -9 -7 -4 -13 3 -23 2 -23 -3 0 -6 -8 -13 -17 -16 -15 -6 -15 -4
2 14 21 23 24 24 45 9z m-2190 -3 c0 -2 -7 -7 -16 -10 -8 -3 -12 -2 -9 4 6 10
25 14 25 6z m14 -20 c-3 -9 -12 -16 -20 -16 -11 0 -10 4 4 18 20 22 25 21 16
-2z m40 13 c-3 -6 0 -15 7 -20 11 -7 10 -9 -3 -9 -10 0 -33 -9 -52 -20 -27
-14 -34 -16 -29 -5 3 8 12 15 20 15 17 0 43 24 43 39 0 6 5 11 11 11 5 0 7 -5
3 -11z m151 1 c3 -5 13 -7 23 -4 15 5 15 4 -1 -6 -13 -9 -21 -8 -33 4 -8 9
-11 16 -5 16 5 0 12 -4 16 -10z m80 0 c3 -6 -1 -7 -9 -4 -18 7 -21 14 -7 14 6
0 13 -4 16 -10z m983 -15 c-3 -3 -9 2 -12 12 -6 14 -5 15 5 6 7 -7 10 -15 7
-18z m-1103 -14 c-2 -2 -12 0 -22 4 -10 4 -29 8 -43 7 l-25 -1 25 7 c22 7 75
-7 65 -17z m95 9 c0 -5 -8 -10 -17 -10 -15 0 -16 2 -3 10 19 12 20 12 20 0z
m1846 -25 c0 -17 -3 -21 -11 -15 -15 13 -56 -16 -49 -34 3 -8 0 -17 -6 -21 -8
-5 -8 -11 2 -23 10 -14 10 -15 -2 -4 -17 15 -34 16 -24 1 5 -8 2 -9 -12 -1
-14 8 -24 7 -39 -6 -17 -14 -18 -14 -5 0 12 12 143 128 145 128 1 0 1 -11 1
-25z m64 10 c-7 -8 -17 -15 -22 -15 -6 0 -5 7 2 15 7 8 17 15 22 15 6 0 5 -7
-2 -15z m399 -1 c7 5 9 1 5 -8 -5 -14 -24 -23 -24 -12 0 2 -3 13 -6 23 -4 14
-4 15 4 4 5 -7 15 -11 21 -7z m-2352 0 c-3 -3 -12 -4 -19 -1 -8 3 -5 6 6 6 11
1 17 -2 13 -5z m1048 -32 c-17 -15 -18 -15 -6 0 7 9 9 23 5 30 -6 10 -4 11 7
0 11 -10 10 -15 -6 -30z m645 -13 c0 -27 -3 -48 -8 -45 -7 4 -4 96 4 96 2 0 4
-23 4 -51z m-1699 10 c53 -26 125 -111 149 -177 18 -46 21 -72 18 -134 -6 -94
-33 -143 -105 -185 -42 -24 -58 -28 -128 -28 -63 1 -89 6 -123 23 -78 41 -146
129 -168 218 -4 16 -14 34 -23 41 -9 6 -12 15 -8 19 4 5 12 3 16 -5 5 -8 10 1
15 28 26 167 214 272 357 200z m55 -1 l19 -23 -25 20 c-14 11 -27 21 -29 22
-2 2 0 3 6 3 5 0 18 -10 29 -22z m1869 12 c3 -5 1 -10 -4 -10 -6 0 -11 5 -11
10 0 6 2 10 4 10 3 0 8 -4 11 -10z m-573 -32 c-2 -15 -5 -28 -7 -28 -2 0 -5
13 -7 28 -2 17 1 29 7 29 6 0 9 -12 7 -29z m-1648 7 c-5 -11 -2 -13 10 -9 9 3
14 9 11 13 -2 4 2 8 10 8 8 0 15 -1 15 -2 0 0 -17 -17 -37 -36 -21 -18 -32
-27 -25 -19 15 17 16 34 1 24 -8 -4 -8 0 0 15 13 24 23 28 15 6z m387 -8 c-10
-9 -11 -8 -5 6 3 10 9 15 12 12 3 -3 0 -11 -7 -18z m55 1 c10 -12 13 -18 5
-13 -11 6 -13 4 -7 -11 4 -10 4 -15 0 -11 -4 4 -13 2 -19 -3 -9 -8 -14 -6 -18
4 -4 9 -2 18 3 21 5 3 7 12 3 20 -8 22 11 18 33 -7z m374 11 c-11 -8 -2 -10
35 -6 28 2 42 2 33 0 -10 -3 -18 -8 -18 -12 0 -10 31 -8 50 3 12 7 13 6 3 -4
-17 -18 -44 -22 -60 -8 -8 6 -40 11 -73 12 -64 0 -71 4 -20 11 18 2 35 6 38 9
3 3 10 6 16 6 6 0 4 -5 -4 -11z m567 -11 c-3 -8 -6 -5 -6 6 -1 11 2 17 5 13 3
-3 4 -12 1 -19z m-692 2 c-13 -6 -15 -9 -5 -9 13 -1 13 -2 0 -11 -8 -5 -22 -9
-30 -9 -10 0 -8 3 5 9 13 6 15 9 5 9 -13 1 -13 2 0 11 8 5 22 9 30 9 10 0 8
-3 -5 -9z m912 -25 c-9 -8 -18 -11 -22 -6 -3 6 3 14 12 20 24 13 29 6 10 -14z
m-1714 -35 c-6 -7 -23 23 -23 40 0 8 6 4 13 -10 8 -14 12 -27 10 -30z m1044
33 c-4 -3 1 -16 10 -27 17 -20 17 -20 -2 -6 -11 8 -22 15 -24 17 -5 3 9 23 16
23 4 0 3 -3 0 -7z m-52 -24 c103 -38 191 -140 214 -249 21 -93 -49 -236 -144
-295 -61 -38 -154 -46 -240 -20 -77 22 -154 97 -180 175 -27 82 -23 174 11
250 62 138 195 193 339 139z m-338 -7 c-18 -20 -23 -57 -7 -47 6 3 10 2 10 -4
0 -5 -5 -13 -10 -16 -6 -4 -8 -10 -5 -14 2 -5 -4 -16 -15 -26 -11 -10 -17 -22
-14 -26 3 -5 0 -9 -5 -9 -17 0 -13 15 8 34 16 14 18 23 10 49 -7 26 -5 35 13
54 25 27 39 31 15 5z m1028 -2 c-1 -10 -10 -28 -20 -40 -11 -12 -13 -20 -6
-20 7 0 9 -5 5 -12 -6 -9 -9 -9 -12 0 -8 25 -33 10 -54 -33 -12 -24 -25 -42
-30 -39 -4 3 -8 0 -8 -5 0 -6 -6 -11 -12 -11 -7 1 -3 9 10 19 12 11 22 24 22
29 0 5 13 24 29 41 15 16 27 33 25 36 -2 3 -1 3 2 0 4 -2 15 0 26 6 15 8 17
14 8 24 -8 10 -7 14 2 18 7 3 13 6 14 6 0 1 0 -8 -1 -19z m-1615 -32 c0 -6 -8
-4 -18 5 -10 10 -22 14 -27 10 -4 -5 -5 -2 -1 5 9 14 46 -2 46 -20z m494 17
c-3 -7 2 -18 11 -25 8 -7 15 -17 15 -23 0 -6 -11 4 -25 23 -29 40 -28 37 -11
37 8 0 12 -6 10 -12z m30 -1 c3 -8 2 -12 -4 -9 -6 3 -10 10 -10 16 0 14 7 11
14 -7z m94 -12 c-20 -27 -22 -28 -15 -9 4 10 1 17 -6 17 -8 0 -7 4 3 9 21 14
33 2 18 -17z m419 8 c1 -16 -1 -17 -12 -7 -11 10 -8 19 10 27 1 0 1 -9 2 -20z
m1600 5 c4 -4 3 -5 -4 -1 -6 3 -19 -4 -27 -16 -9 -12 -16 -17 -16 -11 0 7 5
15 10 18 6 4 8 10 5 15 -7 11 22 7 32 -5z m-1572 -16 c-4 -5 1 -16 9 -25 9 -8
16 -20 16 -26 0 -6 -8 0 -18 13 -19 24 -26 63 -10 53 5 -3 6 -10 3 -15z m62
-5 c2 -13 1 -15 -4 -4 -3 8 -11 19 -17 23 -7 6 -6 7 4 4 8 -2 16 -12 17 -23z
m-1230 -31 c-3 -10 -5 -2 -5 17 0 19 2 27 5 18 2 -10 2 -26 0 -35z m2193 37
c0 -5 -8 -6 -17 -3 -13 5 -15 2 -10 -11 10 -25 -2 -40 -19 -25 -11 9 -14 9
-14 -1 0 -8 -2 -11 -5 -8 -3 3 -3 13 1 22 6 15 7 15 21 -1 14 -17 14 -17 9 0
-3 11 -4 23 0 28 7 12 34 12 34 -1z m-2173 -37 c-3 -10 -5 -4 -5 12 0 17 2 24
5 18 2 -7 2 -21 0 -30z m73 5 c0 -6 -7 -5 -15 2 -8 7 -15 17 -15 22 0 6 7 5
15 -2 8 -7 15 -17 15 -22z m1120 11 c0 -6 -4 -7 -10 -4 -5 3 -10 11 -10 16 0
6 5 7 10 4 6 -3 10 -11 10 -16z m990 -9 c0 -5 -5 -10 -11 -10 -5 0 -7 5 -4 10
3 6 8 10 11 10 2 0 4 -4 4 -10z m-2157 -15 c4 -8 2 -17 -3 -20 -6 -4 -10 3
-10 14 0 25 6 27 13 6z m30 -25 c-7 -27 -13 -25 -11 4 1 14 5 23 9 20 4 -2 5
-13 2 -24z m554 -2 c-3 -8 -6 -5 -6 6 -1 11 2 17 5 13 3 -3 4 -12 1 -19z m793
12 c0 -5 -2 -10 -4 -10 -3 0 -8 5 -11 10 -3 6 -1 10 4 10 6 0 11 -4 11 -10z
m120 -5 c-7 -9 -15 -13 -19 -10 -3 3 1 10 9 15 21 14 24 12 10 -5z m1100 -4
c-27 -18 -50 -23 -50 -10 0 6 8 9 18 7 9 -2 16 2 15 7 -1 6 8 11 19 11 20 0
20 -1 -2 -15z m-1420 -1 c0 -5 -5 -10 -11 -10 -5 0 -7 5 -4 10 3 6 8 10 11 10
2 0 4 -4 4 -10z m290 -30 c0 -13 -1 -13 -10 0 -5 8 -10 22 -10 30 0 13 1 13
10 0 5 -8 10 -22 10 -30z m60 27 c0 -2 -12 -14 -27 -28 -24 -22 -24 -13 0 19
8 11 27 17 27 9z m-120 -27 c0 -5 -4 -10 -10 -10 -5 0 -10 5 -10 10 0 6 5 10
10 10 6 0 10 -4 10 -10z m-1423 -22 c-3 -8 -6 -5 -6 6 -1 11 2 17 5 13 3 -3 4
-12 1 -19z m1476 -11 c3 -8 -1 -14 -8 -14 -7 0 -11 6 -8 14 3 7 6 13 8 13 2 0
5 -6 8 -13z m-209 -18 c-8 -13 -21 -11 -27 5 -4 10 0 12 14 9 10 -3 16 -9 13
-14z m23 -24 c-1 -19 -5 -35 -9 -35 -9 0 -10 17 -2 48 9 32 13 27 11 -13z
m1188 25 c-3 -5 -12 -10 -18 -10 -7 0 -6 4 3 10 19 12 23 12 15 0z m-1237 -36
c-4 -3 -12 5 -18 18 -12 22 -12 22 6 6 10 -10 15 -20 12 -24z m289 8 c-2 -23
-7 -27 -36 -29 -25 -2 -34 3 -38 17 -3 11 -9 17 -14 14 -5 -3 -9 -1 -9 5 0 5
8 9 19 8 12 -1 17 -7 13 -19 -2 -11 1 -18 9 -18 19 1 49 25 49 39 0 6 2 11 5
11 2 0 3 -12 2 -28z m-1490 6 c-2 -7 0 -21 4 -30 6 -10 5 -19 -1 -23 -5 -3
-10 -11 -10 -16 0 -6 4 -8 10 -4 9 6 55 -73 47 -82 -3 -2 -11 9 -18 26 -10 23
-16 27 -27 19 -7 -6 -12 -7 -11 -2 1 5 1 16 -1 24 -1 11 -4 10 -11 -5 -8 -17
-8 -16 -3 5 4 14 8 39 9 55 4 42 4 45 11 45 3 0 4 -6 1 -12z m1223 -33 c0 -8
-4 -15 -10 -15 -5 0 -7 7 -4 15 4 8 8 15 10 15 2 0 4 -7 4 -15z m-1288 -60 c2
-19 1 -32 -3 -27 -10 11 -20 74 -10 68 5 -3 11 -22 13 -41z m1305 23 c-3 -8
-6 -5 -6 6 -1 11 2 17 5 13 3 -3 4 -12 1 -19z m1008 5 c20 8 10 -10 -13 -22
-14 -7 -17 -4 -19 17 -1 16 2 20 7 12 4 -7 15 -10 25 -7z m-1038 -25 c-3 -8
-6 -5 -6 6 -1 11 2 17 5 13 3 -3 4 -12 1 -19z m33 -17 c-5 -11 -10 -30 -10
-42 0 -12 -3 -20 -6 -16 -10 9 5 77 17 77 6 0 6 -7 -1 -19z m-684 -29 c-4 -11
-17 -32 -31 -48 -18 -21 -21 -31 -13 -41 5 -7 15 -10 22 -6 6 3 7 2 3 -3 -5
-5 -13 -10 -18 -10 -5 -1 -12 -2 -15 -3 -4 0 0 -9 7 -18 11 -15 11 -16 -1 -5
-16 14 -34 16 -26 3 4 -5 -2 -8 -11 -7 -24 4 -23 18 1 22 10 1 24 8 30 15 8 9
7 10 -6 6 -25 -9 -23 -2 17 50 19 25 35 53 35 61 0 8 3 13 6 9 3 -3 3 -14 0
-25z m634 -12 c-4 -23 -11 -44 -15 -48 -7 -7 4 66 12 81 9 16 10 5 3 -33z
m-1180 10 c0 -5 -4 -10 -10 -10 -5 0 -10 5 -10 10 0 6 5 10 10 10 6 0 10 -4
10 -10z m2150 6 c0 -2 -7 -7 -16 -10 -8 -3 -12 -2 -9 4 6 10 25 14 25 6z
m-2210 -29 c0 -7 -7 -22 -15 -33 -13 -17 -13 -16 -3 14 13 34 18 40 18 19z
m80 -2 c0 -11 5 -13 18 -7 13 6 25 -1 49 -25 17 -18 27 -33 22 -33 -5 0 -17 9
-26 19 -9 11 -21 17 -26 14 -6 -3 -7 -1 -3 5 4 7 3 12 -3 12 -5 0 -13 -5 -16
-11 -5 -6 -12 -4 -21 8 -16 22 -18 33 -4 33 6 0 10 -7 10 -15z m526 -22 c-8
-15 -15 -25 -16 -21 0 12 23 58 27 54 3 -2 -2 -17 -11 -33z m-547 5 c14 -19 5
-23 -18 -9 -7 5 -10 14 -6 21 4 6 8 10 9 8 1 -2 8 -11 15 -20z m2042 -21 c-10
-9 -11 -8 -5 6 3 10 9 15 12 12 3 -3 0 -11 -7 -18z m-56 -15 c-3 -3 -11 0 -18
7 -9 10 -8 11 6 5 10 -3 15 -9 12 -12z m-1915 -13 c0 -6 -4 -7 -10 -4 -5 3
-10 11 -10 16 0 6 5 7 10 4 6 -3 10 -11 10 -16z m527 -20 c12 -14 12 -17 -1
-22 -10 -4 -13 -1 -10 7 3 8 1 17 -5 21 -6 3 -11 -1 -11 -11 0 -10 -2 -15 -5
-12 -4 3 -3 19 1 34 5 18 9 23 12 14 3 -8 11 -22 19 -31z m-397 -10 c8 0 10
-3 4 -5 -6 -3 -24 1 -40 7 -16 7 -33 11 -37 10 -5 -1 -6 3 -3 8 4 6 17 4 34
-5 15 -7 34 -14 42 -15z m1780 27 c0 -3 -4 -8 -10 -11 -5 -3 -10 -1 -10 4 0 6
5 11 10 11 6 0 10 -2 10 -4z m-1549 -19 c-6 -8 -9 -17 -6 -21 3 -3 -1 -1 -7 4
-10 9 -10 13 2 20 21 13 24 12 11 -3z m720 -10 c-6 -8 -7 -18 -3 -22 4 -5 2
-5 -4 -2 -16 9 -36 -17 -28 -37 5 -12 2 -15 -10 -10 -9 3 -16 2 -16 -4 0 -6 6
-12 13 -15 6 -2 0 -4 -15 -3 -33 1 -33 1 -10 25 9 10 29 33 44 50 27 30 52 45
29 18z m-791 -17 c-8 -5 -31 -9 -50 -8 l-35 1 40 7 c59 11 61 11 45 0z m-405
-42 c-4 -52 -5 -54 -15 -36 -7 11 -6 25 2 42 15 34 16 33 13 -6z m669 6 c-3
-16 -1 -23 6 -19 6 3 7 0 4 -9 -3 -9 -9 -16 -13 -16 -16 0 -20 13 -10 31 7 14
6 19 -3 19 -9 0 -9 3 2 10 8 5 16 10 17 10 1 0 0 -12 -3 -26z m1260 17 c9 -14
-59 -50 -75 -40 -11 7 -9 9 6 9 11 0 31 7 45 15 24 14 24 14 3 15 -12 0 -24
-4 -28 -10 -3 -5 -13 -6 -23 -3 -14 6 -13 8 8 14 37 10 58 10 64 0z m-1213
-38 c8 -9 9 -14 2 -10 -6 4 -13 1 -16 -5 -3 -7 -4 -3 -4 10 1 26 1 26 18 5z
m482 -7 c4 -10 1 -13 -9 -9 -7 3 -14 9 -14 14 0 14 17 10 23 -5z m-361 -51
c28 -3 34 -15 7 -14 -13 0 -42 -2 -64 -4 -30 -4 -35 -3 -22 5 10 5 25 7 33 4
8 -3 14 -1 14 3 0 13 -27 21 -47 15 -16 -5 -16 -4 -3 6 13 10 11 11 -7 7 -15
-3 -20 -1 -16 9 4 11 13 9 46 -8 23 -12 50 -22 59 -23z m243 25 c-3 -5 -12
-10 -18 -10 -7 0 -6 4 3 10 19 12 23 12 15 0z m712 -2 c-10 -5 -14 -14 -11
-20 4 -6 2 -8 -4 -4 -6 3 -13 2 -17 -4 -3 -5 -12 -10 -18 -10 -7 0 -4 5 6 11
9 5 17 15 17 21 0 7 -5 6 -15 -2 -9 -8 -15 -8 -15 -2 0 12 11 16 47 19 23 1
24 -1 10 -9z m-1310 -4 c-3 -3 -12 -4 -19 -1 -8 3 -5 6 6 6 11 1 17 -2 13 -5z
m640 0 c-3 -3 -12 -4 -19 -1 -8 3 -5 6 6 6 11 1 17 -2 13 -5z m-414 -11 c-7
-2 -21 -2 -30 0 -10 3 -4 5 12 5 17 0 24 -2 18 -5z m353 -19 c0 -1 -17 1 -36
4 -32 5 -33 6 -10 12 14 3 30 1 36 -5 7 -5 11 -11 10 -11z m-496 -2 c3 -2 -21
-2 -52 1 -32 3 -58 2 -58 -2 0 -5 -15 -11 -32 -14 -18 -3 -42 -8 -53 -12 -20
-7 -20 -6 -1 9 11 9 30 16 43 16 13 0 23 5 23 10 0 11 119 3 130 -8z m89 9
c11 -7 9 -10 -8 -16 -13 -4 -25 -4 -28 -1 -4 3 2 6 13 6 16 0 17 2 4 10 -8 5
-10 10 -5 10 6 0 16 -4 24 -9z m78 -7 c-3 -3 -12 -4 -19 -1 -8 3 -5 6 6 6 11
1 17 -2 13 -5z m248 -4 c13 -6 5 -7 -24 -3 -32 4 -42 3 -37 -5 4 -7 14 -12 23
-12 9 0 14 -3 10 -6 -9 -9 -45 5 -51 21 -4 11 3 15 27 14 18 0 41 -4 52 -9z
m721 -10 c0 -12 -4 -16 -9 -11 -5 5 -6 14 -3 20 10 15 12 14 12 -9z m-956 -15
c13 -15 9 -15 -60 8 -8 3 -1 6 16 6 17 1 37 -6 44 -14z m337 9 c-3 -3 -12 -4
-19 -1 -8 3 -5 6 6 6 11 1 17 -2 13 -5z m-281 -19 c-1 -8 -6 -18 -11 -22 -4
-5 -5 -2 0 6 6 10 4 13 -7 9 -9 -4 -15 0 -15 8 0 8 8 14 18 14 9 0 16 -7 15
-15z m80 -6 c0 -8 -7 -23 -15 -33 -15 -18 -15 -19 2 -13 10 4 16 3 12 -2 -3
-5 5 -17 17 -25 26 -18 42 -21 33 -5 -4 6 2 5 14 -3 12 -7 21 -18 21 -25 0
-24 -23 -25 -46 -2 -31 32 -46 44 -73 58 -18 10 -20 15 -10 27 14 17 -2 19
-21 2 -12 -11 -12 -10 0 5 7 10 20 15 28 12 20 -8 37 5 21 17 -11 8 -11 9 1 5
8 -2 15 -10 16 -18z m-676 1 c0 -5 -2 -10 -4 -10 -3 0 -8 5 -11 10 -3 6 -1 10
4 10 6 0 11 -4 11 -10z m110 -6 c-40 -18 -76 -27 -66 -16 7 7 11 8 37 11 5 0
8 4 6 9 -3 4 9 8 26 9 l32 2 -35 -15z m1303 4 c-2 -5 -13 -8 -24 -8 -10 0 -19
3 -19 8 0 4 11 7 24 7 13 0 22 -3 19 -7z m-1653 -122 c-8 -8 -9 -7 -5 4 3 9
-1 34 -8 55 -8 22 -12 47 -9 55 3 8 11 -12 19 -44 10 -43 10 -63 3 -70z m107
99 c9 -24 -1 -27 -15 -5 -8 13 -8 20 -2 20 6 0 13 -7 17 -15z m440 4 c-10 -6
-26 -8 -36 -4 -21 6 -71 -3 -69 -14 2 -20 -5 -26 -33 -27 -17 -1 -25 2 -19 6
9 6 9 9 -1 13 -8 3 0 4 16 3 17 -2 23 -1 15 2 -24 8 48 30 100 30 34 0 40 -2
27 -9z m107 -1 c-3 -4 -21 -8 -40 -8 -46 0 -37 15 10 16 19 0 33 -3 30 -8z
m1006 -8 c-6 -11 -15 -20 -20 -20 -6 0 -2 9 7 20 10 11 19 20 21 20 1 0 -2 -9
-8 -20z m-53 -4 c-18 -14 -18 -14 0 -18 10 -2 14 -6 8 -10 -17 -10 -36 7 -29
25 3 9 14 17 23 17 14 -1 14 -2 -2 -14z m-1547 -6 c0 -5 -4 -10 -10 -10 -5 0
-10 5 -10 10 0 6 5 10 10 10 6 0 10 -4 10 -10z m546 -23 c5 -9 4 -9 -7 1 -7 6
-27 12 -43 13 -26 0 -28 2 -11 8 21 9 49 -1 61 -22z m97 26 c-7 -2 -19 -2 -25
0 -7 3 -2 5 12 5 14 0 19 -2 13 -5z m71 -6 c3 3 6 4 6 1 0 -3 -8 -12 -17 -19
-11 -10 -14 -10 -9 -1 5 8 0 12 -14 12 -12 0 -18 5 -15 10 4 7 12 7 24 0 10
-5 21 -6 25 -3z m-509 -17 c-10 -12 -25 -18 -33 -15 -9 3 -12 0 -9 -8 3 -8 -1
-14 -8 -14 -11 0 -11 5 -4 19 6 11 17 17 24 14 7 -2 16 2 19 10 3 8 11 14 17
14 7 0 5 -8 -6 -20z m85 -11 c-17 -15 -19 -19 -7 -15 10 3 16 2 13 -3 -3 -5
-17 -8 -31 -8 -25 0 -25 0 7 23 39 29 52 31 18 3z m143 14 c-7 -2 -19 -2 -25
0 -7 3 -2 5 12 5 14 0 19 -2 13 -5z m1097 -17 c0 -3 -4 -8 -10 -11 -5 -3 -10
-1 -10 4 0 6 5 11 10 11 6 0 10 -2 10 -4z m-1493 -38 c-3 -8 -6 -5 -6 6 -1 11
2 17 5 13 3 -3 4 -12 1 -19z m1447 10 c-3 -4 -12 -4 -21 -1 -12 5 -14 3 -8 -7
5 -9 4 -11 -4 -6 -16 10 -4 25 19 23 10 -1 17 -5 14 -9z m-1567 -20 c-3 -8 -6
-5 -6 6 -1 11 2 17 5 13 3 -3 4 -12 1 -19z m101 -33 c0 -16 -2 -15 -8 5 -11
34 -11 60 0 35 5 -11 8 -29 8 -40z m207 36 c-3 -5 -1 -12 4 -15 11 -7 42 4 37
13 -3 4 4 7 15 7 18 0 19 -2 4 -12 -12 -9 -13 -13 -3 -17 7 -3 -6 -3 -30 -2
-29 3 -40 0 -36 -7 4 -7 2 -8 -4 -4 -7 4 -12 0 -12 -10 0 -10 -3 -15 -6 -11
-4 3 -3 14 1 24 8 16 10 24 14 38 0 3 6 5 12 5 5 0 8 -4 4 -9z m634 -6 c6 -3
11 -13 11 -22 0 -12 -3 -13 -15 -3 -8 6 -20 8 -26 4 -8 -4 -9 -3 -5 4 4 7 2
12 -3 12 -6 0 -11 -4 -11 -10 0 -5 -7 -7 -15 -4 -8 4 -15 10 -15 15 0 4 7 5
17 2 10 -4 14 -2 10 4 -7 11 34 10 52 -2z m576 6 c3 -5 2 -12 -3 -15 -5 -3 -9
1 -9 9 0 17 3 19 12 6z m-1548 -23 c-3 -8 -6 -5 -6 6 -1 11 2 17 5 13 3 -3 4
-12 1 -19z m260 0 c-3 -8 -6 -5 -6 6 -1 11 2 17 5 13 3 -3 4 -12 1 -19z m811
-1 c-4 -17 57 -99 67 -89 5 4 5 2 1 -5 -3 -6 -1 -15 4 -18 14 -8 32 -51 36
-85 3 -22 2 -23 -7 -7 -6 10 -8 21 -5 24 5 6 -70 119 -108 162 -11 13 -15 21
-8 17 6 -4 12 -2 12 3 0 6 2 11 5 11 3 0 5 -6 3 -13z m-1038 -12 c0 -8 -4 -15
-8 -15 -5 0 -9 7 -9 15 0 8 4 15 9 15 4 0 8 -7 8 -15z m40 5 c0 -5 -4 -10 -10
-10 -5 0 -10 5 -10 10 0 6 5 10 10 10 6 0 10 -4 10 -10z m83 -15 c-3 -9 -8
-14 -10 -11 -3 3 -2 9 2 15 9 16 15 13 8 -4z m125 -11 c-14 -14 -16 -14 -21 0
-4 10 -1 13 9 9 7 -3 14 1 14 8 0 7 3 9 7 5 4 -3 0 -13 -9 -22z m751 -30 c-7
-8 -6 -13 3 -17 7 -2 -3 -4 -22 -3 -37 1 -44 17 -26 58 7 15 10 15 32 -4 17
-15 21 -25 13 -34z m76 38 c-3 -3 -11 0 -18 7 -9 10 -8 11 6 5 10 -3 15 -9 12
-12z m458 -7 c-17 -23 -33 -32 -33 -19 0 5 41 43 48 44 2 0 -5 -11 -15 -25z
m-1566 -17 c-3 -7 -5 -2 -5 12 0 14 2 19 5 13 2 -7 2 -19 0 -25z m93 -20 c0
-4 -4 -8 -10 -8 -5 0 -10 4 -10 9 0 5 -3 18 -6 28 -5 16 -4 16 10 -1 9 -11 16
-23 16 -28z m-43 0 c-3 -7 -5 -2 -5 12 0 14 2 19 5 13 2 -7 2 -19 0 -25z m276
12 c-3 -12 -8 -19 -11 -16 -5 6 5 36 12 36 2 0 2 -9 -1 -20z m802 9 c11 -16 1
-19 -13 -3 -7 8 -8 14 -3 14 5 0 13 -5 16 -11z m-988 -31 c-3 -7 -5 -2 -5 12
0 14 2 19 5 13 2 -7 2 -19 0 -25z m149 6 c-4 -9 -9 -15 -11 -12 -3 3 -3 13 1
22 4 9 9 15 11 12 3 -3 3 -13 -1 -22z m-129 -16 c-3 -7 -5 -2 -5 12 0 14 2 19
5 13 2 -7 2 -19 0 -25z m917 -9 c-3 -5 0 -9 5 -9 6 0 11 -7 11 -16 0 -12 -5
-10 -20 9 -24 31 -28 56 -5 37 8 -7 12 -16 9 -21z m-1062 -2 c-2 -10 -5 -16
-6 -15 -1 2 -7 10 -13 18 -10 13 -8 16 6 16 13 0 17 -6 13 -19z m148 -17 c0
-5 -4 -10 -10 -10 -5 0 -10 5 -10 10 0 6 5 10 10 10 6 0 10 -4 10 -10z m1301
-17 c-12 -20 -14 -14 -5 12 4 9 9 14 11 11 3 -2 0 -13 -6 -23z m-1358 2 c-3
-9 -8 -14 -10 -11 -3 3 -2 9 2 15 9 16 15 13 8 -4z m971 -11 c3 -8 2 -12 -4
-9 -6 3 -10 10 -10 16 0 14 7 11 14 -7z m-913 -21 c-12 -20 -14 -14 -5 12 4 9
9 14 11 11 3 -2 0 -13 -6 -23z m944 17 c-3 -5 -1 -10 6 -10 7 0 10 -3 6 -6 -9
-9 -28 6 -22 17 4 5 8 9 11 9 3 0 2 -4 -1 -10z m-1086 -39 c-6 -2 -18 4 -27
13 -15 15 -15 15 10 4 15 -7 23 -15 17 -17z m66 19 c3 -5 -1 -10 -10 -10 -9 0
-13 5 -10 10 3 6 8 10 10 10 2 0 7 -4 10 -10z m1379 -14 c-3 -9 -10 -13 -15
-10 -5 3 -9 0 -9 -7 0 -7 -2 -10 -5 -7 -9 8 6 38 16 32 5 -3 9 0 9 7 0 7 2 10
5 7 3 -3 3 -13 -1 -22z m-320 -22 c3 -8 2 -12 -4 -9 -6 3 -10 10 -10 16 0 14
7 11 14 -7z m58 -16 c-7 -7 -8 -16 -2 -23 5 -6 5 -16 -2 -25 -8 -13 -9 -12 -5
2 3 9 1 19 -6 21 -9 3 -8 8 2 20 7 10 16 17 19 17 3 0 1 -5 -6 -12z m-55 -30
c-3 -8 -6 -5 -6 6 -1 11 2 17 5 13 3 -3 4 -12 1 -19z m14 -21 c-10 -9 -11 -8
-5 6 3 10 9 15 12 12 3 -3 0 -11 -7 -18z m221 -29 c-6 -6 -7 0 -4 19 5 21 7
23 10 9 2 -10 0 -22 -6 -28z m-234 -3 c-3 -3 -9 2 -12 12 -6 14 -5 15 5 6 7
-7 10 -15 7 -18z m-926 -9 c3 -14 1 -31 -3 -38 -6 -8 -9 -2 -9 19 0 17 -6 34
-12 36 -8 4 -7 6 3 6 10 1 19 -9 21 -23z m945 -8 c-3 -8 -6 -5 -6 6 -1 11 2
17 5 13 3 -3 4 -12 1 -19z m27 7 c3 -8 1 -15 -4 -15 -6 0 -10 7 -10 15 0 8 2
15 4 15 2 0 6 -7 10 -15z m116 -40 c-6 -7 -8 -19 -4 -28 3 -8 1 -17 -3 -20 -8
-5 -10 39 -3 53 1 3 2 9 1 13 -1 5 3 6 9 2 8 -5 8 -11 0 -20z m-1074 -31 c-4
-14 -9 -24 -12 -21 -3 2 -2 17 2 31 3 15 9 25 11 22 3 -3 2 -17 -1 -32z m11
-56 c-3 -8 -6 -5 -6 6 -1 11 2 17 5 13 3 -3 4 -12 1 -19z m1020 10 c2 6 9 12
14 12 5 0 4 -9 -3 -19 -9 -15 -15 -17 -25 -9 -7 6 -13 16 -13 22 0 6 5 4 11
-4 8 -11 12 -12 16 -2z m-31 -45 c-2 -16 -5 -31 -5 -35 -1 -11 -62 -51 -68
-45 -2 3 9 13 26 22 36 18 41 35 9 29 -23 -4 -23 -4 0 6 13 5 26 19 29 30 8
30 14 24 9 -7z m-912 -33 c8 -8 7 -9 -6 -5 -11 4 -18 2 -18 -4 0 -6 4 -11 10
-11 5 0 6 -7 3 -17 -5 -12 -3 -14 7 -8 9 5 11 4 6 -4 -9 -14 -26 -5 -26 14 0
19 -30 46 -42 39 -6 -4 -8 -3 -5 3 8 13 56 8 71 -7z m824 6 c-7 -8 -15 -12
-17 -11 -5 6 10 25 20 25 5 0 4 -6 -3 -14z m22 -16 c0 -5 -5 -10 -11 -10 -5 0
-7 5 -4 10 3 6 8 10 11 10 2 0 4 -4 4 -10z m-29 -53 c-10 -9 -11 -8 -5 6 3 10
9 15 12 12 3 -3 0 -11 -7 -18z m-746 -7 c-3 -5 -12 -10 -18 -10 -7 0 -6 4 3
10 19 12 23 12 15 0z m-10 -40 c3 -5 2 -10 -4 -10 -5 0 -13 5 -16 10 -3 6 -2
10 4 10 5 0 13 -4 16 -10z m100 -40 c-3 -5 -12 -10 -18 -10 -7 0 -6 4 3 10 19
12 23 12 15 0z m595 4 c0 -8 -19 -13 -24 -6 -3 5 1 9 9 9 8 0 15 -2 15 -3z
m-605 -42 c-3 -3 -11 0 -18 7 -9 10 -8 11 6 5 10 -3 15 -9 12 -12z m65 -7 c16
-19 10 -19 -26 0 -25 13 -26 15 -8 15 12 0 27 -7 34 -15z m87 -31 c-3 -3 -12
-4 -19 -1 -8 3 -5 6 6 6 11 1 17 -2 13 -5z m76 -11 c-7 -2 -19 -2 -25 0 -7 3
-2 5 12 5 14 0 19 -2 13 -5z m74 1 c-3 -3 -12 -4 -19 -1 -8 3 -5 6 6 6 11 1
17 -2 13 -5z m-32 -22 c-3 -3 -11 0 -18 7 -9 10 -8 11 6 5 10 -3 15 -9 12 -12z
m-40 -2 c3 -6 -1 -7 -9 -4 -18 7 -21 14 -7 14 6 0 13 -4 16 -10z m242 4 c-3
-3 -12 -4 -19 -1 -8 3 -5 6 6 6 11 1 17 -2 13 -5z m-140 -20 c-3 -3 -12 -4
-19 -1 -8 3 -5 6 6 6 11 1 17 -2 13 -5z m116 -1 c-7 -2 -19 -2 -25 0 -7 3 -2
5 12 5 14 0 19 -2 13 -5z"/>
<path d="M2605 2200 c-3 -5 -1 -10 4 -10 6 0 11 5 11 10 0 6 -2 10 -4 10 -3 0
-8 -4 -11 -10z"/>
<path d="M2764 1819 c-19 -22 -19 -22 4 -10 12 6 22 16 22 21 0 15 -5 12 -26
-11z"/>
<path d="M932 1753 c-19 -8 -43 -60 -35 -80 19 -55 79 -72 107 -31 40 56 -12
136 -72 111z"/>
<path d="M1082 1845 c4 -4 3 -14 -3 -22 -7 -8 -8 -13 -1 -13 15 0 23 28 9 36
-7 4 -9 4 -5 -1z"/>
<path d="M1477 1652 c-25 -27 -22 -78 5 -96 50 -35 108 -11 108 45 0 58 -76
92 -113 51z"/>
<path d="M1404 1105 c-10 -8 -14 -15 -8 -15 6 0 17 7 24 15 16 19 9 19 -16 0z"/>
<path d="M1486 1031 c-3 -5 1 -11 9 -15 8 -3 15 -1 15 4 0 13 -18 22 -24 11z"/>
<path d="M1454 949 c-3 -6 0 -17 8 -25 13 -13 16 -13 27 0 10 12 9 17 -8 25
-14 8 -22 8 -27 0z m20 -15 c3 -8 2 -12 -4 -9 -6 3 -10 10 -10 16 0 14 7 11
14 -7z"/>
<path d="M570 790 c-13 -8 -12 -10 3 -10 9 0 17 5 17 10 0 12 -1 12 -20 0z"/>
</g>
</svg>
